<?xml version="1.0" encoding="UTF-8" standalone="no"?>
<!DOCTYPE svg PUBLIC "-//W3C//DTD SVG 1.1//EN" "http://www.w3.org/Graphics/SVG/1.1/DTD/svg11.dtd">
<svg width="100%" height="100%" viewBox="0 0 18 19" version="1.1" xmlns="http://www.w3.org/2000/svg" xmlns:xlink="http://www.w3.org/1999/xlink" xml:space="preserve" xmlns:serif="http://www.serif.com/" style="fill-rule:evenodd;clip-rule:evenodd;stroke-linejoin:round;stroke-miterlimit:2;">
    <g id="great_find">
        <path d="M9,0.5C4.063,0.5 -0,4.563 0,9.5C0,14.437 4.063,18.5 9,18.5C13.937,18.5 18,14.437 18,9.5C18,4.563 13.937,0.5 9,0.5Z" style="fill-opacity:0.3;fill-rule:nonzero;"/>
        <path d="M9,0C4.063,0 -0,4.063 0,9C0,13.937 4.063,18 9,18C13.937,18 18,13.937 18,9C18,4.063 13.937,0 9,0Z" style="fill:rgb(116,155,191);fill-rule:nonzero;"/>
        <g>
            <g opacity="0.2">
                <path d="M10.32,14.6C10.331,14.643 10.331,14.687 10.32,14.73C10.299,14.771 10.272,14.808 10.24,14.84L10.13,14.92L7.87,14.92L7.76,14.84C7.709,14.77 7.681,14.686 7.68,14.6L7.68,12.7C7.669,12.657 7.669,12.613 7.68,12.57C7.697,12.533 7.721,12.499 7.75,12.47C7.779,12.438 7.812,12.411 7.85,12.39L9.98,12.39C10.071,12.387 10.159,12.423 10.22,12.49C10.252,12.519 10.279,12.552 10.3,12.59C10.306,12.633 10.306,12.677 10.3,12.72L10.32,14.6ZM10.2,10.67C10.215,10.709 10.215,10.751 10.2,10.79C10.183,10.83 10.159,10.867 10.13,10.9C10.064,10.95 9.983,10.978 9.9,10.98L8.1,10.98C8.09,10.981 8.08,10.981 8.07,10.981C7.9,10.981 7.76,10.842 7.76,10.671C7.76,10.671 7.76,10.67 7.76,10.67L7.61,3.9C7.61,3.812 7.642,3.726 7.7,3.66C7.728,3.623 7.766,3.595 7.81,3.58C7.853,3.569 7.897,3.569 7.94,3.58L10.05,3.58C10.144,3.575 10.235,3.612 10.3,3.68C10.358,3.746 10.39,3.832 10.39,3.92L10.2,10.67Z" style="fill-rule:nonzero;"/>
            </g>
            <path d="M10.32,14.1C10.331,14.143 10.331,14.187 10.32,14.23C10.299,14.271 10.272,14.308 10.24,14.34L10.13,14.42L7.87,14.42L7.76,14.34C7.709,14.27 7.681,14.186 7.68,14.1L7.68,12.2C7.669,12.157 7.669,12.113 7.68,12.07C7.697,12.033 7.721,11.999 7.75,11.97C7.779,11.938 7.812,11.911 7.85,11.89L9.98,11.89C10.071,11.887 10.159,11.923 10.22,11.99C10.252,12.019 10.279,12.052 10.3,12.09C10.306,12.133 10.306,12.177 10.3,12.22L10.32,14.1ZM10.2,10.17C10.215,10.209 10.215,10.251 10.2,10.29C10.183,10.33 10.159,10.367 10.13,10.4C10.064,10.45 9.983,10.478 9.9,10.48L8.1,10.48C8.09,10.481 8.08,10.481 8.07,10.481C7.9,10.481 7.76,10.342 7.76,10.171C7.76,10.171 7.76,10.17 7.76,10.17L7.61,3.4C7.61,3.312 7.642,3.226 7.7,3.16C7.728,3.123 7.766,3.095 7.81,3.08C7.853,3.069 7.897,3.069 7.94,3.08L10.05,3.08C10.144,3.075 10.235,3.112 10.3,3.18C10.358,3.246 10.39,3.332 10.39,3.42L10.2,10.17Z" style="fill:white;fill-rule:nonzero;"/>
        </g>
    </g>
</svg>
